<svg width="200" height="45" viewBox="0 0 200 45" fill="none" xmlns="http://www.w3.org/2000/svg">
<path d="M58.5869 22.4917C59.9999 22.7929 61.1349 23.4993 61.9919 24.6112C62.849 25.6999 63.2775 26.9507 63.2775 28.3637C63.2775 30.4021 62.5594 32.0235 61.1233 33.228C59.7103 34.4093 57.7299 35 55.1819 35H43.8202V10.6089H54.7997C57.2782 10.6089 59.2123 11.1764 60.6021 12.3114C62.0151 13.4464 62.7216 14.9868 62.7216 16.9325C62.7216 18.3686 62.3394 19.5616 61.575 20.5113C60.8338 21.461 59.8377 22.1211 58.5869 22.4917ZM49.7616 20.4765H53.6531C54.626 20.4765 55.3672 20.268 55.8768 19.8511C56.4096 19.411 56.6759 18.774 56.6759 17.9401C56.6759 17.1062 56.4096 16.4692 55.8768 16.0291C55.3672 15.589 54.626 15.369 53.6531 15.369H49.7616V20.4765ZM54.1395 30.2052C55.1356 30.2052 55.9 29.9851 56.4327 29.545C56.9886 29.0817 57.2666 28.4216 57.2666 27.5645C57.2666 26.7075 56.9771 26.0357 56.398 25.5493C55.842 25.0629 55.0661 24.8197 54.07 24.8197H49.7616V30.2052H54.1395ZM69.7116 13.597C68.6693 13.597 67.8122 13.2958 67.1405 12.6936C66.4919 12.0682 66.1676 11.3038 66.1676 10.4004C66.1676 9.47388 66.4919 8.70948 67.1405 8.10723C67.8122 7.48182 68.6693 7.16911 69.7116 7.16911C70.7308 7.16911 71.5647 7.48182 72.2133 8.10723C72.885 8.70948 73.2209 9.47388 73.2209 10.4004C73.2209 11.3038 72.885 12.0682 72.2133 12.6936C71.5647 13.2958 70.7308 13.597 69.7116 13.597ZM72.665 15.6122V35H66.7235V15.6122H72.665ZM87.7764 29.9619V35H84.7536C82.5994 35 80.92 34.4788 79.7155 33.4365C78.511 32.3709 77.9088 30.6453 77.9088 28.2594V20.546H75.5461V15.6122H77.9088V10.8868H83.8502V15.6122H87.7416V20.546H83.8502V28.3289C83.8502 28.908 83.9892 29.325 84.2671 29.5798C84.5451 29.8346 85.0084 29.9619 85.6569 29.9619H87.7764ZM101.892 29.9619V35H98.8688C96.7146 35 95.0352 34.4788 93.8307 33.4365C92.6262 32.3709 92.024 30.6453 92.024 28.2594V20.546H89.6613V15.6122H92.024V10.8868H97.9654V15.6122H101.857V20.546H97.9654V28.3289C97.9654 28.908 98.1044 29.325 98.3824 29.5798C98.6603 29.8346 99.1236 29.9619 99.7722 29.9619H101.892ZM114.026 35.278C112.127 35.278 110.413 34.8726 108.884 34.0619C107.378 33.2512 106.186 32.093 105.305 30.5874C104.448 29.0817 104.02 27.3213 104.02 25.3061C104.02 23.314 104.46 21.5652 105.34 20.0596C106.22 18.5308 107.425 17.361 108.954 16.5503C110.482 15.7396 112.196 15.3342 114.096 15.3342C115.995 15.3342 117.709 15.7396 119.238 16.5503C120.767 17.361 121.971 18.5308 122.852 20.0596C123.732 21.5652 124.172 23.314 124.172 25.3061C124.172 27.2982 123.72 29.0586 122.817 30.5874C121.937 32.093 120.721 33.2512 119.169 34.0619C117.64 34.8726 115.926 35.278 114.026 35.278ZM114.026 30.1357C115.161 30.1357 116.123 29.7187 116.91 28.8848C117.721 28.051 118.126 26.858 118.126 25.3061C118.126 23.7541 117.733 22.5612 116.945 21.7273C116.181 20.8935 115.231 20.4765 114.096 20.4765C112.938 20.4765 111.976 20.8935 111.212 21.7273C110.448 22.5381 110.065 23.731 110.065 25.3061C110.065 26.858 110.436 28.051 111.177 28.8848C111.942 29.7187 112.891 30.1357 114.026 30.1357ZM133.265 18.8435C133.96 17.778 134.829 16.9441 135.871 16.3418C136.914 15.7164 138.072 15.4037 139.346 15.4037V21.6926H137.713C136.23 21.6926 135.119 22.0169 134.377 22.6655C133.636 23.2909 133.265 24.4027 133.265 26.001V35H127.324V15.6122H133.265V18.8435ZM160.462 24.9934C160.462 25.5493 160.427 26.1284 160.357 26.7306H146.911C147.004 27.9351 147.386 28.8617 148.058 29.5103C148.753 30.1357 149.598 30.4484 150.594 30.4484C152.076 30.4484 153.107 29.823 153.686 28.5721H160.01C159.686 29.8461 159.095 30.9927 158.238 32.0119C157.404 33.0311 156.35 33.8302 155.076 34.4093C153.802 34.9884 152.378 35.278 150.803 35.278C148.903 35.278 147.212 34.8726 145.73 34.0619C144.247 33.2512 143.089 32.093 142.255 30.5874C141.421 29.0817 141.004 27.3213 141.004 25.3061C141.004 23.2909 141.41 21.5305 142.22 20.0248C143.054 18.5192 144.213 17.361 145.695 16.5503C147.177 15.7396 148.88 15.3342 150.803 15.3342C152.679 15.3342 154.347 15.728 155.806 16.5156C157.265 17.3031 158.4 18.4266 159.211 19.8858C160.045 21.3451 160.462 23.0477 160.462 24.9934ZM154.381 23.4299C154.381 22.4107 154.034 21.5999 153.339 20.9977C152.644 20.3954 151.775 20.0943 150.733 20.0943C149.737 20.0943 148.892 20.3839 148.197 20.9629C147.525 21.542 147.108 22.3643 146.946 23.4299H154.381ZM175.409 15.4037C177.679 15.4037 179.486 16.145 180.83 17.6274C182.196 19.0867 182.88 21.1019 182.88 23.6731V35H176.973V24.4722C176.973 23.1751 176.637 22.1674 175.965 21.4494C175.294 20.7313 174.39 20.3723 173.255 20.3723C172.12 20.3723 171.217 20.7313 170.545 21.4494C169.873 22.1674 169.537 23.1751 169.537 24.4722V35H163.596V15.6122H169.537V18.1833C170.14 17.3263 170.95 16.6545 171.97 16.1681C172.989 15.6585 174.135 15.4037 175.409 15.4037ZM197.814 29.9619V35H194.791C192.637 35 190.958 34.4788 189.753 33.4365C188.549 32.3709 187.946 30.6453 187.946 28.2594V20.546H185.584V15.6122H187.946V10.8868H193.888V15.6122H197.779V20.546H193.888V28.3289C193.888 28.908 194.027 29.325 194.305 29.5798C194.583 29.8346 195.046 29.9619 195.695 29.9619H197.814Z" fill="white"/>
<path fill-rule="evenodd" clip-rule="evenodd" d="M20.7907 29.3017V14.4512H5.93976V29.3017H20.7907ZM26.7311 8.51074H0V35.2418H26.7311V8.51074Z" fill="white"/>
</svg>
