<svg width="163" height="43" viewBox="0 0 163 43" fill="none" xmlns="http://www.w3.org/2000/svg">
<path fill-rule="evenodd" clip-rule="evenodd" d="M7.95549 42.2241H34.6951C39.0894 42.2241 42.6506 38.6985 42.6506 34.3482V7.87594C42.6506 3.52565 39.0894 0 34.6951 0H7.95549C3.56126 0 0 3.52565 0 7.87594V34.3482C0 38.6985 3.56126 42.2241 7.95549 42.2241ZM30.1564 24.7877C30.1564 23.5448 29.77 22.4453 29.0095 21.5011C28.249 20.557 27.2229 19.9355 25.907 19.6248C27.0297 19.3618 27.9351 18.8121 28.6232 17.9516C29.3113 17.0911 29.6614 16.0274 29.6614 14.7367C29.6614 12.9918 29.0578 11.6413 27.8627 10.6971C26.6675 9.75296 24.9774 9.2749 22.7803 9.2749H13.002V30.6081H23.0218C25.3154 30.6081 27.078 30.0822 28.3093 29.0663C29.5407 28.0505 30.1564 26.6163 30.1564 24.7877ZM21.6214 17.9994H18.205V13.4101H21.561C23.4081 13.4101 24.3376 14.175 24.3376 15.7047C24.3376 17.2345 23.4322 17.9994 21.6214 17.9994ZM24.06 22.278C24.567 22.7082 24.8205 23.3058 24.8205 24.0707C24.8205 25.6363 23.8547 26.4131 21.9353 26.4251H18.2171V21.6326H21.8991C22.8286 21.6326 23.5529 21.8477 24.06 22.278Z" fill="white"/>
<path d="M67.3627 31.7726L62.7029 23.7174H61.5198V31.7726H56.3047V10.4395H65.2018C66.904 10.4395 68.3526 10.7263 69.5236 11.3119C70.7067 11.8975 71.5879 12.6983 72.1795 13.7141C72.771 14.73 73.0607 15.8893 73.0607 17.2039C73.0607 18.7576 72.6261 20.0722 71.769 21.1598C70.8998 22.2474 69.6564 22.9884 68.0025 23.3947L73.1211 31.7846H67.3627V31.7726ZM61.5198 20.1918H64.7431C65.7812 20.1918 66.5418 19.9647 67.0247 19.5105C67.5076 19.0564 67.7611 18.3871 67.7611 17.5027C67.7611 16.6542 67.5076 15.9968 67.0126 15.5068C66.5177 15.0288 65.7571 14.7778 64.7431 14.7778H61.5198V20.1918Z" fill="white"/>
<path d="M96.6489 27.8886H88.5727L87.2327 31.7847H81.752L89.6471 10.6069H95.6469L103.542 31.7847H98.001L96.6489 27.8886ZM95.3089 23.9566L92.6289 16.1165L89.9127 23.9566H95.3089Z" fill="white"/>
<path d="M132.31 31.7726H127.095L118.379 18.6739V31.7726H113.164V10.4395H118.379L127.095 23.6576V10.4395H132.31V31.7726Z" fill="white"/>
<path d="M161.549 26.6335C160.644 28.247 159.34 29.5138 157.65 30.4221C155.948 31.3304 153.956 31.7846 151.662 31.7846H143.525V10.4514H151.662C153.98 10.4514 155.984 10.8936 157.662 11.778C159.352 12.6624 160.644 13.9054 161.549 15.5188C162.454 17.1322 162.901 18.9727 162.901 21.0762C162.901 23.1557 162.442 25.0082 161.549 26.6335ZM155.935 25.5579C157.058 24.4942 157.626 22.9884 157.626 21.0642C157.626 19.1281 157.058 17.6342 155.935 16.5705C154.813 15.5068 153.231 14.969 151.191 14.969H148.728V27.1594H151.191C153.231 27.1594 154.813 26.6335 155.935 25.5579Z" fill="white"/>
</svg>
