<svg width="22" height="22" viewBox="0 0 22 22" fill="none" xmlns="http://www.w3.org/2000/svg">
<path fill-rule="evenodd" clip-rule="evenodd" d="M22 11.0664C22 4.9552 17.0746 0 11 0C4.92545 0 0 4.9552 0 11.0664C0 16.5898 4.02187 21.168 9.28125 21.999V14.2663H6.48754V11.0664H9.28125V8.62837C9.28125 5.85534 10.9239 4.32234 13.4362 4.32234C14.6398 4.32234 15.8989 4.53873 15.8989 4.53873V7.26236H14.5112C13.1455 7.26236 12.7183 8.11507 12.7183 8.99149V11.0664H15.7688L15.2817 14.2663H12.7187V22C17.9781 21.1695 22 16.5913 22 11.0664V11.0664Z" fill="white"/>
</svg>
