<svg width="22" height="22" viewBox="0 0 22 22" fill="none" xmlns="http://www.w3.org/2000/svg">
<path d="M15.5832 1.83317C16.7977 1.8368 17.9615 2.32088 18.8203 3.1797C19.6791 4.03852 20.1632 5.20228 20.1668 6.41683V15.5832C20.1632 16.7977 19.6791 17.9615 18.8203 18.8203C17.9615 19.6791 16.7977 20.1632 15.5832 20.1668H6.41683C5.20228 20.1632 4.03852 19.6791 3.1797 18.8203C2.32088 17.9615 1.8368 16.7977 1.83317 15.5832V6.41683C1.8368 5.20228 2.32088 4.03852 3.1797 3.1797C4.03852 2.32088 5.20228 1.8368 6.41683 1.83317H15.5832ZM15.5832 0H6.41683C2.8875 0 0 2.8875 0 6.41683V15.5832C0 19.1125 2.8875 22 6.41683 22H15.5832C19.1125 22 22 19.1125 22 15.5832V6.41683C22 2.8875 19.1125 0 15.5832 0Z" fill="white"/>
<path d="M16.964 6.4209C16.6921 6.4209 16.4262 6.34026 16.2001 6.18917C15.974 6.03808 15.7978 5.82334 15.6937 5.57209C15.5896 5.32084 15.5624 5.04437 15.6155 4.77765C15.6685 4.51093 15.7995 4.26592 15.9918 4.07363C16.1841 3.88133 16.4291 3.75037 16.6958 3.69732C16.9625 3.64426 17.239 3.67149 17.4902 3.77556C17.7415 3.87964 17.9562 4.05587 18.1073 4.28199C18.2584 4.50811 18.339 4.77395 18.339 5.0459C18.3394 5.22658 18.3041 5.40555 18.2352 5.57255C18.1662 5.73955 18.0649 5.89128 17.9372 6.01904C17.8094 6.1468 17.6577 6.24806 17.4907 6.31702C17.3237 6.38599 17.1447 6.42129 16.964 6.4209ZM11.0059 7.33724C11.7311 7.33724 12.44 7.5523 13.043 7.95521C13.6461 8.35813 14.116 8.93081 14.3936 9.60084C14.6711 10.2709 14.7437 11.0081 14.6022 11.7194C14.4607 12.4307 14.1115 13.0841 13.5987 13.5969C13.0859 14.1097 12.4325 14.459 11.7212 14.6004C11.0099 14.7419 10.2727 14.6693 9.60263 14.3918C8.9326 14.1142 8.35992 13.6443 7.957 13.0413C7.55409 12.4382 7.33903 11.7293 7.33903 11.0041C7.34007 10.0319 7.72673 9.09982 8.41417 8.41238C9.10161 7.72494 10.0337 7.33828 11.0059 7.33724ZM11.0059 5.50407C9.91806 5.50407 8.8547 5.82664 7.95023 6.43099C7.04576 7.03533 6.34081 7.89432 5.92452 8.89931C5.50824 9.9043 5.39932 11.0102 5.61154 12.0771C5.82376 13.144 6.34759 14.124 7.11677 14.8932C7.88596 15.6623 8.86597 16.1862 9.93287 16.3984C10.9998 16.6106 12.1056 16.5017 13.1106 16.0854C14.1156 15.6691 14.9746 14.9642 15.5789 14.0597C16.1833 13.1552 16.5059 12.0919 16.5059 11.0041C16.5059 9.54538 15.9264 8.14643 14.8949 7.11498C13.8635 6.08353 12.4646 5.50407 11.0059 5.50407Z" fill="white"/>
</svg>
