<svg width="19" height="24" viewBox="0 0 19 24" fill="none" xmlns="http://www.w3.org/2000/svg">
<path d="M9.50156 12.8464C11.3793 12.8464 12.9016 11.331 12.9016 9.46176C12.9016 7.59249 11.3793 6.07715 9.50156 6.07715C7.62379 6.07715 6.10156 7.59249 6.10156 9.46176C6.10156 11.331 7.62379 12.8464 9.50156 12.8464Z" stroke="white" stroke-width="1.5" stroke-linecap="round" stroke-linejoin="round"/>
<path d="M18.0013 9.46154C18.0013 17.0769 9.50065 23 9.50065 23C9.50065 23 1 17.0769 1 9.46154C1 7.2174 1.8956 5.06517 3.48978 3.47833C5.08396 1.89148 7.24614 1 9.50065 1C11.7552 1 13.9173 1.89148 15.5115 3.47833C17.1057 5.06517 18.0013 7.2174 18.0013 9.46154Z" stroke="white" stroke-width="1.5" stroke-linecap="round" stroke-linejoin="round"/>
</svg>
