<svg width="22" height="22" viewBox="0 0 22 22" fill="none" xmlns="http://www.w3.org/2000/svg">
<path d="M14.0469 1.86914C15.5097 2.25435 16.8441 3.02092 17.9137 4.09055C18.9833 5.16018 19.7499 6.49454 20.1351 7.95736" stroke="white" stroke-width="1.5" stroke-linecap="round" stroke-linejoin="round"/>
<path d="M13.1777 5.34863C14.9738 5.82917 16.1762 7.03159 16.6567 8.82761" stroke="white" stroke-width="1.5" stroke-linecap="round" stroke-linejoin="round"/>
<path d="M14.5245 13.3217C14.6449 13.2415 14.7835 13.1927 14.9276 13.1796C15.0717 13.1665 15.2168 13.1895 15.3497 13.2467L20.4773 15.5439C20.6501 15.6177 20.7943 15.7455 20.8884 15.9082C20.9825 16.0709 21.0213 16.2596 20.9991 16.4462C20.8302 17.7085 20.2086 18.8665 19.2498 19.7048C18.291 20.5431 17.0604 21.0047 15.7868 21.0037C11.8651 21.0037 8.10402 19.4459 5.33096 16.6731C2.55789 13.9002 1 10.1394 1 6.21802C0.999027 4.9445 1.46065 3.71397 2.29902 2.75528C3.1374 1.79658 4.29545 1.17498 5.55782 1.00607C5.74443 0.983907 5.9332 1.02277 6.09588 1.11684C6.25855 1.21091 6.38639 1.35513 6.46025 1.52792L8.75764 6.65942C8.81408 6.79122 8.83707 6.93492 8.82455 7.07775C8.81203 7.22058 8.76439 7.3581 8.68588 7.47807L6.36239 10.2406C6.27997 10.3649 6.23123 10.5086 6.22094 10.6574C6.21065 10.8062 6.23916 10.9552 6.30368 11.0897C7.20285 12.9303 9.10556 14.81 10.9517 15.7004C11.087 15.7647 11.2366 15.7925 11.3859 15.7813C11.5352 15.77 11.679 15.72 11.8031 15.6363L14.5245 13.3217Z" stroke="white" stroke-width="1.5" stroke-linecap="round" stroke-linejoin="round"/>
</svg>
