<svg width="26" height="26" viewBox="0 0 26 26" fill="none" xmlns="http://www.w3.org/2000/svg">
<path d="M16.6641 2.04248C18.4202 2.50456 20.0222 3.42409 21.3063 4.70716C22.5905 5.99023 23.5108 7.59085 23.9732 9.34557" stroke="white" stroke-width="1.5" stroke-linecap="round" stroke-linejoin="round"/>
<path d="M15.6172 6.21582C17.7734 6.79224 19.217 8.2346 19.7939 10.389" stroke="white" stroke-width="1.5" stroke-linecap="round" stroke-linejoin="round"/>
<path d="M17.2355 15.7804C17.3801 15.6842 17.5464 15.6257 17.7194 15.6099C17.8924 15.5942 18.0666 15.6219 18.2262 15.6904L24.3815 18.446C24.589 18.5346 24.7621 18.6879 24.8751 18.8831C24.988 19.0782 25.0346 19.3046 25.008 19.5284C24.8053 21.0426 24.059 22.4316 22.908 23.4372C21.7571 24.4428 20.2798 24.9965 18.7509 24.9953C14.043 24.9953 9.52804 23.1267 6.19911 19.8005C2.87018 16.4744 1 11.9631 1 7.25925C0.998833 5.7316 1.55299 4.25553 2.55942 3.10553C3.56584 1.95554 4.95603 1.2099 6.47144 1.00729C6.69546 0.980696 6.92207 1.02731 7.11736 1.14015C7.31265 1.253 7.46611 1.426 7.55477 1.63326L10.3127 7.78872C10.3804 7.94682 10.408 8.1192 10.393 8.29053C10.378 8.46186 10.3208 8.62682 10.2265 8.77072L7.4373 12.0845C7.33836 12.2337 7.27985 12.4059 7.2675 12.5845C7.25514 12.763 7.28936 12.9417 7.36682 13.103C8.44622 15.3109 10.7303 17.5657 12.9466 18.6338C13.1089 18.7109 13.2886 18.7443 13.4678 18.7308C13.647 18.7173 13.8196 18.6573 13.9686 18.5569L17.2355 15.7804Z" stroke="white" stroke-width="1.5" stroke-linecap="round" stroke-linejoin="round"/>
</svg>
