<?xml version="1.0" standalone="no"?>
<!DOCTYPE svg PUBLIC "-//W3C//DTD SVG 20010904//EN"
 "http://www.w3.org/TR/2001/REC-SVG-20010904/DTD/svg10.dtd">
<svg version="1.0" xmlns="http://www.w3.org/2000/svg"
 width="207.000000pt" height="289.000000pt" viewBox="0 0 207.000000 289.000000"
 preserveAspectRatio="xMidYMid meet">

<g transform="translate(0.000000,289.000000) scale(0.100000,-0.100000)"
fill="#000000" stroke="none">
<path d="M892 2850 l-672 -5 -80 -120 c-44 -66 -80 -123 -80 -127 0 -5 108 -8
239 -8 319 0 430 -16 567 -81 68 -33 162 -112 193 -163 12 -18 21 -36 21 -40
0 -3 -193 -6 -430 -6 l-430 0 -80 -120 c-45 -67 -83 -127 -87 -135 -4 -13 65
-15 531 -15 295 0 536 -4 536 -8 0 -5 -5 -35 -11 -68 -17 -96 -60 -174 -134
-242 -142 -133 -350 -193 -673 -194 l-172 0 1 -72 c1 -39 4 -97 8 -128 l6 -58
225 -266 c247 -293 570 -676 723 -858 l98 -116 202 2 c184 3 202 5 205 21 2
11 -117 168 -335 439 -186 232 -414 517 -507 633 l-168 210 98 12 c303 38 542
155 678 332 62 80 112 181 132 266 9 39 18 76 20 83 3 9 44 12 167 12 l164 0
86 130 c48 71 87 132 87 135 0 3 -116 5 -257 5 l-258 0 -17 58 c-9 31 -39 95
-66 142 l-49 85 237 3 237 2 87 130 c47 71 86 132 86 135 0 3 -102 4 -227 3
-126 -2 -531 -5 -901 -8z"/>
</g>
</svg>
