<svg width="26" height="24" viewBox="0 0 26 24" fill="none" xmlns="http://www.w3.org/2000/svg">
<path d="M13.9511 0.927296C13.6517 0.00598526 12.3483 0.00598407 12.0489 0.927295L9.8568 7.67401C9.72293 8.08603 9.33897 8.36499 8.90575 8.36499H1.81184C0.843113 8.36499 0.440336 9.6046 1.22405 10.174L6.96314 14.3437C7.31363 14.5983 7.46029 15.0497 7.32642 15.4617L5.13428 22.2084C4.83492 23.1298 5.8894 23.8959 6.67312 23.3265L12.4122 19.1568C12.7627 18.9021 13.2373 18.9021 13.5878 19.1568L19.3269 23.3265C20.1106 23.8959 21.1651 23.1298 20.8657 22.2084L18.6736 15.4617C18.5397 15.0497 18.6864 14.5983 19.0369 14.3437L24.7759 10.174C25.5597 9.60461 25.1569 8.36499 24.1882 8.36499H17.0943C16.661 8.36499 16.2771 8.08603 16.1432 7.67401L13.9511 0.927296Z" fill="#FFC839"/>
</svg>
